<svg width="638" height="421" viewBox="0 0 638 421" fill="none" xmlns="http://www.w3.org/2000/svg">
    <path d="M328 38.679C328 43.691 323.971 47.7542 319 47.7542C314.029 47.7542 310 43.691 310 38.679C310 33.6668 314.029 29.6038 319 29.6038C323.971 29.6038 328 33.6668 328 38.679ZM328.284 3.0526C322.753 -1.01753 315.247 -1.01753 309.716 3.0526L242.919 52.2034C234.125 58.674 238.664 72.7106 249.551 72.7106H251.5V125.346C243.486 129.477 238 137.883 238 147.581V161.194C238 164.953 241.022 168 244.75 168H393.25C396.978 168 400 164.953 400 161.194V147.581C400 137.883 394.514 129.477 386.5 125.346V72.7106H388.449C399.336 72.7106 403.874 58.6741 395.081 52.2034L328.284 3.0526ZM317.673 14.0488C318.464 13.4674 319.536 13.4674 320.327 14.0488L381.549 59.0981H256.451L317.673 14.0488ZM373 72.7106V122.624H355V72.7106H373ZM341.5 72.7106V122.624H325.75V72.7106H341.5ZM312.25 72.7106V122.624H296.5V72.7106H312.25ZM262.75 136.237H375.25C381.464 136.237 386.5 141.316 386.5 147.581V154.387H251.5V147.581C251.5 141.316 256.537 136.237 262.75 136.237ZM265 122.624V72.7106H283V122.624H265Z" fill="#DFCFCF"/>
    <path d="M62.3154 254.012C65.2744 254.012 67.8525 253.675 70.0498 253.001C72.2471 252.327 74.1953 251.214 75.8945 249.661C77.5938 248.108 78.8682 245.955 79.7178 243.201C80.5967 240.447 81.0361 237.093 81.0361 233.138V197.586L72.9502 193.982V192.181H94.2637V193.982L86.8809 197.586V232.522C86.8809 241.458 84.8594 248.079 80.8164 252.386C76.7734 256.663 70.665 258.802 62.4912 258.802C59.6201 258.802 57.0273 258.567 54.7129 258.099C52.4277 257.659 50.2305 256.854 48.1211 255.682C46.0117 254.48 44.2539 252.942 42.8477 251.067C41.4414 249.163 40.3135 246.702 39.4639 243.685C38.6436 240.667 38.2334 237.151 38.2334 233.138V197.146L30.1035 193.982V192.181H54.4053V193.982L46.7588 197.146V231.995C46.7588 246.673 51.9443 254.012 62.3154 254.012ZM122.652 255.198V257H98.834V255.198L106.92 252.034V219.031L98.834 215.867V214.065L114.127 210.901L115.006 211.824V217.142C117.086 215.208 119.518 213.685 122.301 212.571C125.084 211.458 127.823 210.901 130.519 210.901C134.444 210.901 137.696 212.103 140.274 214.505C142.882 216.907 144.186 220.481 144.186 225.228V252.034L152.271 255.198V257H128.409V255.198L136.1 252.034V227.908C136.1 223.689 135.338 220.76 133.814 219.119C132.32 217.479 129.742 216.658 126.08 216.658C121.715 216.658 118.023 217.962 115.006 220.569V252.034L122.652 255.198ZM181.583 255.198V257H157.281V255.198L165.367 252.034V219.031L157.281 215.867V214.065L172.574 210.901L173.497 211.824V252.034L181.583 255.198ZM162.423 197.674C162.423 196.15 162.95 194.861 164.005 193.807C165.089 192.723 166.422 192.181 168.004 192.181C169.527 192.181 170.816 192.723 171.871 193.807C172.955 194.861 173.497 196.15 173.497 197.674C173.497 199.256 172.955 200.589 171.871 201.673C170.816 202.728 169.527 203.255 168.004 203.255C166.422 203.255 165.089 202.728 164.005 201.673C162.95 200.589 162.423 199.256 162.423 197.674ZM233.307 212V213.802L227.022 216.966V216.658L211.334 257.088L206.5 258.099L189.142 216.966L182.901 213.802V212H204.435V213.802L197.579 216.482L210.279 246.849L221.178 216.395L214.674 213.802V212H233.307ZM273.561 234.764H245.128C245.157 238.045 245.626 240.901 246.534 243.333C247.442 245.765 248.673 247.669 250.226 249.046C251.778 250.423 253.478 251.434 255.323 252.078C257.198 252.723 259.234 253.045 261.432 253.045C264.479 253.045 267.745 252.02 271.231 249.969L272.594 252.605C270.133 254.773 267.672 256.238 265.211 257C262.75 257.732 259.952 258.099 256.817 258.099C254.093 258.099 251.471 257.527 248.951 256.385C246.432 255.213 244.22 253.616 242.315 251.595C240.411 249.544 238.888 247.039 237.745 244.08C236.603 241.121 236.031 237.928 236.031 234.5C236.031 231.248 236.441 228.289 237.262 225.623C238.111 222.928 239.225 220.687 240.602 218.899C241.979 217.112 243.575 215.604 245.392 214.373C247.237 213.143 249.112 212.264 251.017 211.736C252.95 211.18 254.913 210.901 256.905 210.901C259.396 210.901 261.695 211.37 263.805 212.308C265.943 213.216 267.833 214.578 269.474 216.395C271.144 218.182 272.447 220.54 273.385 223.47C274.352 226.399 274.835 229.739 274.835 233.489L273.561 234.764ZM257.081 215.164C253.712 215.164 251.017 216.497 248.995 219.163C247.003 221.829 245.772 225.477 245.304 230.105H266.266C266.266 225.418 265.475 221.756 263.893 219.119C262.311 216.482 260.04 215.164 257.081 215.164ZM308.189 255.198V257H281.646V255.198L289.732 252.034V219.031L281.646 215.867V214.065L296.939 210.901L297.818 211.824V217.229C302.271 213.011 308.131 210.901 315.396 210.901V220.657L313.595 221.272L307.179 217.757C305.86 217.757 304.352 218.05 302.652 218.636C300.953 219.192 299.342 220.013 297.818 221.097V252.034L308.189 255.198ZM324.361 242.146L329.063 252.122C329.444 252.356 329.913 252.576 330.47 252.781C331.026 252.957 331.627 253.118 332.271 253.265C332.916 253.411 333.575 253.528 334.249 253.616C334.923 253.704 335.582 253.748 336.227 253.748C337.721 253.748 339.068 253.602 340.27 253.309C341.5 252.986 342.555 252.547 343.434 251.99C344.312 251.404 344.986 250.701 345.455 249.881C345.924 249.031 346.158 248.079 346.158 247.024C346.158 245.647 345.587 244.344 344.444 243.113C343.331 241.854 341.749 240.638 339.698 239.466L334.996 236.829C333.326 235.95 331.759 235.042 330.294 234.104C328.858 233.167 327.599 232.142 326.515 231.028C325.431 229.915 324.566 228.685 323.922 227.337C323.307 225.989 322.999 224.48 322.999 222.811C322.999 220.789 323.395 219.031 324.186 217.537C324.977 216.043 326.104 214.812 327.569 213.846C329.034 212.85 330.792 212.117 332.843 211.648C334.923 211.15 337.223 210.901 339.742 210.901C343.609 210.901 347.477 211.531 351.344 212.791L351.168 225.491H349.366L344.708 215.164C343.595 215.018 342.628 214.9 341.808 214.812C341.017 214.725 340.357 214.681 339.83 214.681C338.248 214.681 336.871 214.871 335.699 215.252C334.557 215.604 333.604 216.087 332.843 216.702C332.11 217.288 331.554 217.962 331.173 218.724C330.821 219.485 330.646 220.276 330.646 221.097C330.646 222.063 330.821 222.942 331.173 223.733C331.554 224.495 332.096 225.228 332.799 225.931C333.531 226.634 334.439 227.337 335.523 228.04C336.607 228.714 337.867 229.432 339.303 230.193C341.354 231.307 343.038 232.215 344.356 232.918C345.704 233.621 346.671 234.178 347.257 234.588C351.856 237.664 354.156 241.209 354.156 245.223C354.156 247.391 353.629 249.295 352.574 250.936C351.549 252.547 350.187 253.909 348.487 255.022C346.817 256.106 344.928 256.912 342.818 257.439C340.709 257.996 338.585 258.274 336.446 258.274C335.333 258.274 334.132 258.201 332.843 258.055C331.554 257.908 330.265 257.703 328.976 257.439C327.687 257.176 326.441 256.868 325.24 256.517C324.068 256.136 323.028 255.726 322.12 255.286V242.146H324.361ZM386.544 255.198V257H362.242V255.198L370.328 252.034V219.031L362.242 215.867V214.065L377.535 210.901L378.458 211.824V252.034L386.544 255.198ZM367.384 197.674C367.384 196.15 367.911 194.861 368.966 193.807C370.05 192.723 371.383 192.181 372.965 192.181C374.488 192.181 375.777 192.723 376.832 193.807C377.916 194.861 378.458 196.15 378.458 197.674C378.458 199.256 377.916 200.589 376.832 201.673C375.777 202.728 374.488 203.255 372.965 203.255C371.383 203.255 370.05 202.728 368.966 201.673C367.911 200.589 367.384 199.256 367.384 197.674ZM406.759 218.108V242.586C406.759 244.578 406.905 246.248 407.198 247.596C407.521 248.943 407.975 249.954 408.561 250.628C409.176 251.272 409.82 251.727 410.494 251.99C411.168 252.225 411.974 252.342 412.911 252.342C414.669 252.342 416.134 252.195 417.306 251.902C418.507 251.58 419.796 250.994 421.173 250.145L422.535 252.957C418.404 256.385 413.878 258.099 408.956 258.099C406.085 258.099 403.653 256.971 401.661 254.715C399.669 252.43 398.673 249.236 398.673 245.135V218.108L390.499 215.867V214.065L399.024 212.264L402.276 200.135H406.759V212.264H419.635L421.173 212.791V215.428L406.759 218.108ZM424.073 213.802V212H447.364V213.802L440.553 216.482L453.517 245.926L464.107 216.307L457.647 213.802V212H476.808V213.802L468.722 216.966L454.308 257L444.42 280.599L436.949 279.236L436.114 277.435L450.089 255.462L432.159 216.658V216.966L424.073 213.802ZM540.88 258.802C535.226 258.802 530.172 257.439 525.719 254.715C521.295 251.961 517.809 247.991 515.26 242.806C512.711 237.62 511.437 231.614 511.437 224.788C511.437 219.69 512.228 214.974 513.81 210.638C515.421 206.272 517.604 202.61 520.357 199.651C523.141 196.692 526.393 194.378 530.113 192.708C533.834 191.038 537.804 190.203 542.022 190.203C546.212 190.203 550.094 191.038 553.668 192.708C557.271 194.349 560.362 196.648 562.94 199.607C565.519 202.566 567.54 206.214 569.005 210.55C570.47 214.856 571.202 219.573 571.202 224.7C571.202 229.798 570.396 234.5 568.785 238.807C567.203 243.113 565.05 246.717 562.325 249.617C559.601 252.518 556.378 254.773 552.657 256.385C548.966 257.996 545.04 258.802 540.88 258.802ZM541.407 195.169C537.306 195.169 533.688 196.443 530.553 198.992C527.447 201.512 525.06 205.013 523.39 209.495C521.72 213.948 520.885 219.046 520.885 224.788C520.885 233.519 522.76 240.579 526.51 245.97C530.26 251.331 535.226 254.012 541.407 254.012C547.501 254.012 552.408 251.302 556.129 245.882C559.879 240.462 561.754 233.401 561.754 224.7C561.754 215.97 559.879 208.865 556.129 203.387C552.379 197.908 547.472 195.169 541.407 195.169ZM596.427 218.108V252.034L607.677 255.198V257H580.211V255.198L588.297 252.034V218.284L579.771 215.867V214.065L588.297 212.264V207.781C588.297 204.646 588.854 201.819 589.967 199.3C591.08 196.78 592.56 194.744 594.405 193.191C596.28 191.639 598.375 190.452 600.689 189.632C603.033 188.812 605.479 188.401 608.028 188.401C608.937 188.401 610.152 188.519 611.676 188.753C613.199 188.987 614.356 189.266 615.147 189.588V202.991H613.346L607.105 192.488C604.557 192.488 602.462 193.133 600.821 194.422C599.21 195.711 598.067 197.396 597.394 199.476C596.749 201.526 596.427 203.987 596.427 206.858V212.264H608.819L610.357 212.791V215.428L596.427 218.108ZM145.724 306.181V308.29L137.066 311.498L117.555 335.976L138.165 365.595L146.427 368.935V371H131.397L110.523 339.931H105.206V366.034L113.336 369.198V371H89.4736V369.198L97.1201 366.034V311.146L89.0342 307.982V306.181H112.853V307.982L105.206 311.146V335.888L111.886 334.657L130.431 310.883L123.663 308.29V306.181H145.724ZM173.893 369.198V371H150.074V369.198L158.16 366.034V333.031L150.074 329.867V328.065L165.367 324.901L166.246 325.824V331.142C168.326 329.208 170.758 327.685 173.541 326.571C176.324 325.458 179.063 324.901 181.759 324.901C185.685 324.901 188.937 326.103 191.515 328.505C194.122 330.907 195.426 334.481 195.426 339.228V366.034L203.512 369.198V371H179.649V369.198L187.34 366.034V341.908C187.34 337.689 186.578 334.76 185.055 333.119C183.561 331.479 180.982 330.658 177.32 330.658C172.955 330.658 169.264 331.962 166.246 334.569V366.034L173.893 369.198ZM230.494 324.901C233.834 324.901 236.837 325.473 239.503 326.615C242.169 327.758 244.425 329.369 246.271 331.449C248.116 333.5 249.522 335.976 250.489 338.876C251.485 341.776 251.983 344.984 251.983 348.5C251.983 351.986 251.5 355.18 250.533 358.08C249.566 360.98 248.16 363.471 246.314 365.551C244.469 367.631 242.213 369.242 239.547 370.385C236.881 371.527 233.863 372.099 230.494 372.099C227.096 372.099 224.063 371.527 221.397 370.385C218.731 369.242 216.476 367.631 214.63 365.551C212.784 363.471 211.378 360.995 210.411 358.124C209.444 355.224 208.961 352.016 208.961 348.5C208.961 344.984 209.444 341.776 210.411 338.876C211.407 335.976 212.828 333.5 214.674 331.449C216.52 329.369 218.775 327.758 221.441 326.615C224.107 325.473 227.125 324.901 230.494 324.901ZM220.914 334.218C218.658 337.88 217.53 342.641 217.53 348.5C217.53 351.4 217.809 354.066 218.365 356.498C218.951 358.9 219.786 360.98 220.87 362.738C221.983 364.467 223.346 365.814 224.957 366.781C226.568 367.748 228.414 368.231 230.494 368.231C232.574 368.231 234.435 367.748 236.075 366.781C237.716 365.814 239.093 364.467 240.206 362.738C241.349 360.98 242.213 358.9 242.799 356.498C243.414 354.066 243.722 351.4 243.722 348.5C243.722 345.629 243.414 342.992 242.799 340.59C242.213 338.158 241.349 336.078 240.206 334.35C239.093 332.592 237.716 331.229 236.075 330.263C234.435 329.267 232.574 328.769 230.494 328.769C226.334 328.769 223.141 330.585 220.914 334.218ZM303.839 372.099L290.831 338.041L279.757 371.088L274.879 372.099L260.465 330.658L254.708 327.802V326H276.241V327.802L268.946 330.658L278.57 360.277L290.084 326H294.874L307.179 359.398L315.089 330.658L307.75 327.802V326H325.812V327.802L319.879 330.79L308.717 371.088L303.839 372.099ZM351.432 369.198V371H327.13V369.198L335.26 366.034V310.531L327.13 307.367V305.565L342.467 302.401L343.346 303.324V366.034L351.432 369.198ZM396.607 348.764H368.175C368.204 352.045 368.673 354.901 369.581 357.333C370.489 359.765 371.72 361.669 373.272 363.046C374.825 364.423 376.524 365.434 378.37 366.078C380.245 366.723 382.281 367.045 384.479 367.045C387.525 367.045 390.792 366.02 394.278 363.969L395.641 366.605C393.18 368.773 390.719 370.238 388.258 371C385.797 371.732 382.999 372.099 379.864 372.099C377.14 372.099 374.518 371.527 371.998 370.385C369.479 369.213 367.267 367.616 365.362 365.595C363.458 363.544 361.935 361.039 360.792 358.08C359.649 355.121 359.078 351.928 359.078 348.5C359.078 345.248 359.488 342.289 360.309 339.623C361.158 336.928 362.271 334.687 363.648 332.899C365.025 331.112 366.622 329.604 368.438 328.373C370.284 327.143 372.159 326.264 374.063 325.736C375.997 325.18 377.96 324.901 379.952 324.901C382.442 324.901 384.742 325.37 386.852 326.308C388.99 327.216 390.88 328.578 392.521 330.395C394.19 332.182 395.494 334.54 396.432 337.47C397.398 340.399 397.882 343.739 397.882 347.489L396.607 348.764ZM380.128 329.164C376.759 329.164 374.063 330.497 372.042 333.163C370.05 335.829 368.819 339.477 368.351 344.105H389.312C389.312 339.418 388.521 335.756 386.939 333.119C385.357 330.482 383.087 329.164 380.128 329.164ZM452.901 367.133V368.759L437.608 372.099L436.729 371.176V366.957C433.214 370.385 429.068 372.099 424.293 372.099C421.861 372.099 419.518 371.557 417.262 370.473C415.006 369.359 413.014 367.821 411.285 365.858C409.557 363.866 408.165 361.376 407.11 358.388C406.085 355.37 405.572 352.074 405.572 348.5C405.572 345.014 406.158 341.791 407.33 338.832C408.531 335.873 410.143 333.397 412.164 331.405C414.186 329.384 416.573 327.816 419.327 326.703C422.081 325.561 424.996 324.989 428.072 324.989C430.855 324.989 433.741 325.473 436.729 326.439V310.531L428.6 307.367V305.565L443.937 302.401L444.815 303.324V364.892L452.901 367.133ZM436.729 362.167V331.669C434.005 330.175 431.427 329.428 428.995 329.428C424.864 329.428 421.451 331.259 418.756 334.921C416.09 338.554 414.757 343.08 414.757 348.5C414.757 354.184 415.855 358.754 418.053 362.211C420.279 365.668 423.385 367.396 427.369 367.396C431.031 367.396 434.151 365.653 436.729 362.167ZM472.501 372.714C469.63 374.472 468.194 377.255 468.194 381.063C468.194 382.792 468.619 384.228 469.469 385.37C470.318 386.542 471.402 387.465 472.721 388.139C474.039 388.842 475.504 389.34 477.115 389.633C478.727 389.926 480.279 390.072 481.773 390.072C483.326 390.072 484.879 389.911 486.432 389.589C488.014 389.296 489.42 388.842 490.65 388.227C491.91 387.641 492.936 386.894 493.727 385.985C494.518 385.106 494.913 384.066 494.913 382.865C494.913 381.02 494.444 379.54 493.507 378.427C492.599 377.313 491.354 376.42 489.771 375.746C488.189 375.102 486.329 374.618 484.19 374.296C482.052 373.974 479.767 373.681 477.335 373.417C476.31 373.3 475.387 373.183 474.566 373.065C473.775 372.948 473.087 372.831 472.501 372.714ZM481.334 358.739C478.316 358.739 475.548 358.271 473.028 357.333C471.183 358.563 470.26 360.116 470.26 361.991C470.26 363.075 470.875 363.939 472.105 364.584C473.365 365.229 474.991 365.697 476.983 365.99C478.976 366.254 481.173 366.503 483.575 366.737C485.978 366.972 488.38 367.338 490.782 367.836C493.185 368.334 495.382 369.022 497.374 369.901C499.366 370.751 500.978 372.04 502.208 373.769C503.468 375.526 504.098 377.665 504.098 380.185C504.098 382.206 503.614 384.052 502.647 385.722C501.681 387.392 500.406 388.754 498.824 389.809C497.271 390.893 495.44 391.801 493.331 392.533C491.222 393.266 489.068 393.793 486.871 394.115C484.703 394.438 482.491 394.599 480.235 394.599C473.937 394.599 469.015 393.5 465.47 391.303C461.925 389.135 460.152 386.293 460.152 382.777C460.152 377.709 462.95 374.018 468.546 371.703C465.06 370.531 463.316 368.349 463.316 365.155C463.316 361.405 465.602 358.285 470.172 355.795C467.623 354.242 465.66 352.221 464.283 349.73C462.936 347.24 462.262 344.604 462.262 341.82C462.262 339.682 462.687 337.616 463.536 335.624C464.386 333.603 465.587 331.801 467.14 330.219C468.722 328.607 470.743 327.318 473.204 326.352C475.665 325.385 478.375 324.901 481.334 324.901C483.912 324.901 486.271 325.268 488.409 326H506.075V327.802L496.451 331.229C499.088 334.306 500.406 337.836 500.406 341.82C500.406 343.959 499.967 346.039 499.088 348.061C498.238 350.053 497.022 351.854 495.44 353.466C493.888 355.048 491.881 356.322 489.42 357.289C486.988 358.256 484.293 358.739 481.334 358.739ZM471.402 341.82C471.402 345.834 472.281 348.91 474.039 351.049C475.797 353.188 478.229 354.257 481.334 354.257C484.41 354.257 486.827 353.188 488.585 351.049C490.343 348.881 491.222 345.805 491.222 341.82C491.222 337.836 490.343 334.774 488.585 332.636C486.827 330.497 484.41 329.428 481.334 329.428C478.229 329.428 475.797 330.497 474.039 332.636C472.281 334.774 471.402 337.836 471.402 341.82ZM549.01 348.764H520.577C520.606 352.045 521.075 354.901 521.983 357.333C522.892 359.765 524.122 361.669 525.675 363.046C527.228 364.423 528.927 365.434 530.772 366.078C532.647 366.723 534.684 367.045 536.881 367.045C539.928 367.045 543.194 366.02 546.681 363.969L548.043 366.605C545.582 368.773 543.121 370.238 540.66 371C538.199 371.732 535.401 372.099 532.267 372.099C529.542 372.099 526.92 371.527 524.4 370.385C521.881 369.213 519.669 367.616 517.765 365.595C515.86 363.544 514.337 361.039 513.194 358.08C512.052 355.121 511.48 351.928 511.48 348.5C511.48 345.248 511.891 342.289 512.711 339.623C513.561 336.928 514.674 334.687 516.051 332.899C517.428 331.112 519.024 329.604 520.841 328.373C522.687 327.143 524.562 326.264 526.466 325.736C528.399 325.18 530.362 324.901 532.354 324.901C534.845 324.901 537.145 325.37 539.254 326.308C541.393 327.216 543.282 328.578 544.923 330.395C546.593 332.182 547.896 334.54 548.834 337.47C549.801 340.399 550.284 343.739 550.284 347.489L549.01 348.764ZM532.53 329.164C529.161 329.164 526.466 330.497 524.444 333.163C522.452 335.829 521.222 339.477 520.753 344.105H541.715C541.715 339.418 540.924 335.756 539.342 333.119C537.76 330.482 535.489 329.164 532.53 329.164Z" fill="#DFCFCF"/>
    </svg>
    
    