<svg width="725" height="179" viewBox="0 0 725 179" fill="none" xmlns="http://www.w3.org/2000/svg">
<path d="M367.833 23.7965C367.833 26.8801 365.334 29.3798 362.25 29.3798C359.166 29.3798 356.667 26.8801 356.667 23.7965C356.667 20.7129 359.166 18.2132 362.25 18.2132C365.334 18.2132 367.833 20.7129 367.833 23.7965ZM368.01 1.87805C364.578 -0.626017 359.922 -0.626017 356.49 1.87805L315.052 32.1171C309.596 36.098 312.412 44.7338 319.166 44.7338H320.375V77.1165C315.403 79.6581 312 84.8299 312 90.7963V99.1713C312 101.484 313.875 103.359 316.188 103.359H408.312C410.625 103.359 412.5 101.484 412.5 99.1713V90.7963C412.5 84.8299 409.096 79.6581 404.125 77.1165V44.7338H405.334C412.088 44.7338 414.904 36.0981 409.448 32.1171L368.01 1.87805ZM361.427 8.64326C361.917 8.28554 362.583 8.28554 363.073 8.64326L401.054 36.359H323.446L361.427 8.64326ZM395.75 44.7338V75.4421H384.583V44.7338H395.75ZM376.208 44.7338V75.4421H366.438V44.7338H376.208ZM358.062 44.7338V75.4421H348.292V44.7338H358.062ZM327.354 83.8171H397.146C401.001 83.8171 404.125 86.9421 404.125 90.7963V94.9838H320.375V90.7963C320.375 86.9421 323.5 83.8171 327.354 83.8171ZM328.75 75.4421V44.7338H339.917V75.4421H328.75Z" fill="#DFCFCF"/>
<path d="M24.2285 160.008C26.2012 160.008 27.9199 159.783 29.3848 159.334C30.8496 158.885 32.1484 158.143 33.2812 157.107C34.4141 156.072 35.2637 154.637 35.8301 152.801C36.416 150.965 36.709 148.729 36.709 146.092V122.391L31.3184 119.988V118.787H45.5273V119.988L40.6055 122.391V145.682C40.6055 151.639 39.2578 156.053 36.5625 158.924C33.8672 161.775 29.7949 163.201 24.3457 163.201C22.4316 163.201 20.7031 163.045 19.1602 162.732C17.6367 162.439 16.1719 161.902 14.7656 161.121C13.3594 160.32 12.1875 159.295 11.25 158.045C10.3125 156.775 9.56055 155.135 8.99414 153.123C8.44727 151.111 8.17383 148.768 8.17383 146.092V122.098L2.75391 119.988V118.787H18.9551V119.988L13.8574 122.098V145.33C13.8574 155.115 17.3145 160.008 24.2285 160.008ZM64.4531 160.799V162H48.5742V160.799L53.9648 158.689V136.688L48.5742 134.578V133.377L58.7695 131.268L59.3555 131.883V135.428C60.7422 134.139 62.3633 133.123 64.2188 132.381C66.0742 131.639 67.9004 131.268 69.6973 131.268C72.3145 131.268 74.4824 132.068 76.2012 133.67C77.9395 135.271 78.8086 137.654 78.8086 140.818V158.689L84.1992 160.799V162H68.291V160.799L73.418 158.689V142.605C73.418 139.793 72.9102 137.84 71.8945 136.746C70.8984 135.652 69.1797 135.105 66.7383 135.105C63.8281 135.105 61.3672 135.975 59.3555 137.713V158.689L64.4531 160.799ZM103.74 160.799V162H87.5391V160.799L92.9297 158.689V136.688L87.5391 134.578V133.377L97.7344 131.268L98.3496 131.883V158.689L103.74 160.799ZM90.9668 122.449C90.9668 121.434 91.3184 120.574 92.0215 119.871C92.7441 119.148 93.6328 118.787 94.6875 118.787C95.7031 118.787 96.5625 119.148 97.2656 119.871C97.9883 120.574 98.3496 121.434 98.3496 122.449C98.3496 123.504 97.9883 124.393 97.2656 125.115C96.5625 125.818 95.7031 126.17 94.6875 126.17C93.6328 126.17 92.7441 125.818 92.0215 125.115C91.3184 124.393 90.9668 123.504 90.9668 122.449ZM138.223 132V133.201L134.033 135.311V135.105L123.574 162.059L120.352 162.732L108.779 135.311L104.619 133.201V132H118.975V133.201L114.404 134.988L122.871 155.232L130.137 134.93L125.801 133.201V132H138.223ZM165.059 147.176H146.104C146.123 149.363 146.436 151.268 147.041 152.889C147.646 154.51 148.467 155.779 149.502 156.697C150.537 157.615 151.67 158.289 152.9 158.719C154.15 159.148 155.508 159.363 156.973 159.363C159.004 159.363 161.182 158.68 163.506 157.312L164.414 159.07C162.773 160.516 161.133 161.492 159.492 162C157.852 162.488 155.986 162.732 153.896 162.732C152.08 162.732 150.332 162.352 148.652 161.59C146.973 160.809 145.498 159.744 144.229 158.396C142.959 157.029 141.943 155.359 141.182 153.387C140.42 151.414 140.039 149.285 140.039 147C140.039 144.832 140.312 142.859 140.859 141.082C141.426 139.285 142.168 137.791 143.086 136.6C144.004 135.408 145.068 134.402 146.279 133.582C147.51 132.762 148.76 132.176 150.029 131.824C151.318 131.453 152.627 131.268 153.955 131.268C155.615 131.268 157.148 131.58 158.555 132.205C159.98 132.811 161.24 133.719 162.334 134.93C163.447 136.121 164.316 137.693 164.941 139.646C165.586 141.6 165.908 143.826 165.908 146.326L165.059 147.176ZM154.072 134.109C151.826 134.109 150.029 134.998 148.682 136.775C147.354 138.553 146.533 140.984 146.221 144.07H160.195C160.195 140.945 159.668 138.504 158.613 136.746C157.559 134.988 156.045 134.109 154.072 134.109ZM188.145 160.799V162H170.449V160.799L175.84 158.689V136.688L170.449 134.578V133.377L180.645 131.268L181.23 131.883V135.486C184.199 132.674 188.105 131.268 192.949 131.268V137.771L191.748 138.182L187.471 135.838C186.592 135.838 185.586 136.033 184.453 136.424C183.32 136.795 182.246 137.342 181.23 138.064V158.689L188.145 160.799ZM198.926 152.098L202.061 158.748C202.314 158.904 202.627 159.051 202.998 159.188C203.369 159.305 203.77 159.412 204.199 159.51C204.629 159.607 205.068 159.686 205.518 159.744C205.967 159.803 206.406 159.832 206.836 159.832C207.832 159.832 208.73 159.734 209.531 159.539C210.352 159.324 211.055 159.031 211.641 158.66C212.227 158.27 212.676 157.801 212.988 157.254C213.301 156.688 213.457 156.053 213.457 155.35C213.457 154.432 213.076 153.562 212.314 152.742C211.572 151.902 210.518 151.092 209.15 150.311L206.016 148.553C204.902 147.967 203.857 147.361 202.881 146.736C201.924 146.111 201.084 145.428 200.361 144.686C199.639 143.943 199.062 143.123 198.633 142.225C198.223 141.326 198.018 140.32 198.018 139.207C198.018 137.859 198.281 136.688 198.809 135.691C199.336 134.695 200.088 133.875 201.064 133.23C202.041 132.566 203.213 132.078 204.58 131.766C205.967 131.434 207.5 131.268 209.18 131.268C211.758 131.268 214.336 131.688 216.914 132.527L216.797 140.994H215.596L212.49 134.109C211.748 134.012 211.104 133.934 210.557 133.875C210.029 133.816 209.59 133.787 209.238 133.787C208.184 133.787 207.266 133.914 206.484 134.168C205.723 134.402 205.088 134.725 204.58 135.135C204.092 135.525 203.721 135.975 203.467 136.482C203.232 136.99 203.115 137.518 203.115 138.064C203.115 138.709 203.232 139.295 203.467 139.822C203.721 140.33 204.082 140.818 204.551 141.287C205.039 141.756 205.645 142.225 206.367 142.693C207.09 143.143 207.93 143.621 208.887 144.129C210.254 144.871 211.377 145.477 212.256 145.945C213.154 146.414 213.799 146.785 214.189 147.059C217.256 149.109 218.789 151.473 218.789 154.148C218.789 155.594 218.438 156.863 217.734 157.957C217.051 159.031 216.143 159.939 215.01 160.682C213.896 161.404 212.637 161.941 211.23 162.293C209.824 162.664 208.408 162.85 206.982 162.85C206.24 162.85 205.439 162.801 204.58 162.703C203.721 162.605 202.861 162.469 202.002 162.293C201.143 162.117 200.312 161.912 199.512 161.678C198.73 161.424 198.037 161.15 197.432 160.857V152.098H198.926ZM240.381 160.799V162H224.18V160.799L229.57 158.689V136.688L224.18 134.578V133.377L234.375 131.268L234.99 131.883V158.689L240.381 160.799ZM227.607 122.449C227.607 121.434 227.959 120.574 228.662 119.871C229.385 119.148 230.273 118.787 231.328 118.787C232.344 118.787 233.203 119.148 233.906 119.871C234.629 120.574 234.99 121.434 234.99 122.449C234.99 123.504 234.629 124.393 233.906 125.115C233.203 125.818 232.344 126.17 231.328 126.17C230.273 126.17 229.385 125.818 228.662 125.115C227.959 124.393 227.607 123.504 227.607 122.449ZM253.857 136.072V152.391C253.857 153.719 253.955 154.832 254.15 155.73C254.365 156.629 254.668 157.303 255.059 157.752C255.469 158.182 255.898 158.484 256.348 158.66C256.797 158.816 257.334 158.895 257.959 158.895C259.131 158.895 260.107 158.797 260.889 158.602C261.689 158.387 262.549 157.996 263.467 157.43L264.375 159.305C261.621 161.59 258.604 162.732 255.322 162.732C253.408 162.732 251.787 161.98 250.459 160.477C249.131 158.953 248.467 156.824 248.467 154.09V136.072L243.018 134.578V133.377L248.701 132.176L250.869 124.09H253.857V132.176H262.441L263.467 132.527V134.285L253.857 136.072ZM265.4 133.201V132H280.928V133.201L276.387 134.988L285.029 154.617L292.09 134.871L287.783 133.201V132H300.557V133.201L295.166 135.311L285.557 162L278.965 177.732L273.984 176.824L273.428 175.623L282.744 160.975L270.791 135.105V135.311L265.4 133.201ZM343.271 163.201C339.502 163.201 336.133 162.293 333.164 160.477C330.215 158.641 327.891 155.994 326.191 152.537C324.492 149.08 323.643 145.076 323.643 140.525C323.643 137.127 324.17 133.982 325.225 131.092C326.299 128.182 327.754 125.74 329.59 123.768C331.445 121.795 333.613 120.252 336.094 119.139C338.574 118.025 341.221 117.469 344.033 117.469C346.826 117.469 349.414 118.025 351.797 119.139C354.199 120.232 356.26 121.766 357.979 123.738C359.697 125.711 361.045 128.143 362.021 131.033C362.998 133.904 363.486 137.049 363.486 140.467C363.486 143.865 362.949 147 361.875 149.871C360.82 152.742 359.385 155.145 357.568 157.078C355.752 159.012 353.604 160.516 351.123 161.59C348.662 162.664 346.045 163.201 343.271 163.201ZM343.623 120.779C340.889 120.779 338.477 121.629 336.387 123.328C334.316 125.008 332.725 127.342 331.611 130.33C330.498 133.299 329.941 136.697 329.941 140.525C329.941 146.346 331.191 151.053 333.691 154.646C336.191 158.221 339.502 160.008 343.623 160.008C347.686 160.008 350.957 158.201 353.438 154.588C355.938 150.975 357.188 146.268 357.188 140.467C357.188 134.646 355.938 129.91 353.438 126.258C350.938 122.605 347.666 120.779 343.623 120.779ZM380.303 136.072V158.689L387.803 160.799V162H369.492V160.799L374.883 158.689V136.189L369.199 134.578V133.377L374.883 132.176V129.188C374.883 127.098 375.254 125.213 375.996 123.533C376.738 121.854 377.725 120.496 378.955 119.461C380.205 118.426 381.602 117.635 383.145 117.088C384.707 116.541 386.338 116.268 388.037 116.268C388.643 116.268 389.453 116.346 390.469 116.502C391.484 116.658 392.256 116.844 392.783 117.059V125.994H391.582L387.422 118.992C385.723 118.992 384.326 119.422 383.232 120.281C382.158 121.141 381.396 122.264 380.947 123.65C380.518 125.018 380.303 126.658 380.303 128.572V132.176H388.564L389.59 132.527V134.285L380.303 136.072ZM452.197 118.787V120.193L446.426 122.332L433.418 138.65L447.158 158.396L452.666 160.623V162H442.646L428.73 141.287H425.186V158.689L430.605 160.799V162H414.697V160.799L419.795 158.689V122.098L414.404 119.988V118.787H430.283V119.988L425.186 122.098V138.592L429.639 137.771L442.002 121.922L437.49 120.193V118.787H452.197ZM470.977 160.799V162H455.098V160.799L460.488 158.689V136.688L455.098 134.578V133.377L465.293 131.268L465.879 131.883V135.428C467.266 134.139 468.887 133.123 470.742 132.381C472.598 131.639 474.424 131.268 476.221 131.268C478.838 131.268 481.006 132.068 482.725 133.67C484.463 135.271 485.332 137.654 485.332 140.818V158.689L490.723 160.799V162H474.814V160.799L479.941 158.689V142.605C479.941 139.793 479.434 137.84 478.418 136.746C477.422 135.652 475.703 135.105 473.262 135.105C470.352 135.105 467.891 135.975 465.879 137.713V158.689L470.977 160.799ZM508.711 131.268C510.938 131.268 512.939 131.648 514.717 132.41C516.494 133.172 517.998 134.246 519.229 135.633C520.459 137 521.396 138.65 522.041 140.584C522.705 142.518 523.037 144.656 523.037 147C523.037 149.324 522.715 151.453 522.07 153.387C521.426 155.32 520.488 156.98 519.258 158.367C518.027 159.754 516.523 160.828 514.746 161.59C512.969 162.352 510.957 162.732 508.711 162.732C506.445 162.732 504.424 162.352 502.646 161.59C500.869 160.828 499.365 159.754 498.135 158.367C496.904 156.98 495.967 155.33 495.322 153.416C494.678 151.482 494.355 149.344 494.355 147C494.355 144.656 494.678 142.518 495.322 140.584C495.986 138.65 496.934 137 498.164 135.633C499.395 134.246 500.898 133.172 502.676 132.41C504.453 131.648 506.465 131.268 508.711 131.268ZM502.324 137.479C500.82 139.92 500.068 143.094 500.068 147C500.068 148.934 500.254 150.711 500.625 152.332C501.016 153.934 501.572 155.32 502.295 156.492C503.037 157.645 503.945 158.543 505.02 159.188C506.094 159.832 507.324 160.154 508.711 160.154C510.098 160.154 511.338 159.832 512.432 159.188C513.525 158.543 514.443 157.645 515.186 156.492C515.947 155.32 516.523 153.934 516.914 152.332C517.324 150.711 517.529 148.934 517.529 147C517.529 145.086 517.324 143.328 516.914 141.727C516.523 140.105 515.947 138.719 515.186 137.566C514.443 136.395 513.525 135.486 512.432 134.842C511.338 134.178 510.098 133.846 508.711 133.846C505.938 133.846 503.809 135.057 502.324 137.479ZM557.607 162.732L548.936 140.027L541.553 162.059L538.301 162.732L528.691 135.105L524.854 133.201V132H539.209V133.201L534.346 135.105L540.762 154.852L548.438 132H551.631L559.834 154.266L565.107 135.105L560.215 133.201V132H572.256V133.201L568.301 135.193L560.859 162.059L557.607 162.732ZM589.336 160.799V162H573.135V160.799L578.555 158.689V121.688L573.135 119.578V118.377L583.359 116.268L583.945 116.883V158.689L589.336 160.799ZM619.453 147.176H600.498C600.518 149.363 600.83 151.268 601.436 152.889C602.041 154.51 602.861 155.779 603.896 156.697C604.932 157.615 606.064 158.289 607.295 158.719C608.545 159.148 609.902 159.363 611.367 159.363C613.398 159.363 615.576 158.68 617.9 157.312L618.809 159.07C617.168 160.516 615.527 161.492 613.887 162C612.246 162.488 610.381 162.732 608.291 162.732C606.475 162.732 604.727 162.352 603.047 161.59C601.367 160.809 599.893 159.744 598.623 158.396C597.354 157.029 596.338 155.359 595.576 153.387C594.814 151.414 594.434 149.285 594.434 147C594.434 144.832 594.707 142.859 595.254 141.082C595.82 139.285 596.562 137.791 597.48 136.6C598.398 135.408 599.463 134.402 600.674 133.582C601.904 132.762 603.154 132.176 604.424 131.824C605.713 131.453 607.021 131.268 608.35 131.268C610.01 131.268 611.543 131.58 612.949 132.205C614.375 132.811 615.635 133.719 616.729 134.93C617.842 136.121 618.711 137.693 619.336 139.646C619.98 141.6 620.303 143.826 620.303 146.326L619.453 147.176ZM608.467 134.109C606.221 134.109 604.424 134.998 603.076 136.775C601.748 138.553 600.928 140.984 600.615 144.07H614.59C614.59 140.945 614.062 138.504 613.008 136.746C611.953 134.988 610.439 134.109 608.467 134.109ZM656.982 159.422V160.506L646.787 162.732L646.201 162.117V159.305C643.857 161.59 641.094 162.732 637.91 162.732C636.289 162.732 634.727 162.371 633.223 161.648C631.719 160.906 630.391 159.881 629.238 158.572C628.086 157.244 627.158 155.584 626.455 153.592C625.771 151.58 625.43 149.383 625.43 147C625.43 144.676 625.82 142.527 626.602 140.555C627.402 138.582 628.477 136.932 629.824 135.604C631.172 134.256 632.764 133.211 634.6 132.469C636.436 131.707 638.379 131.326 640.43 131.326C642.285 131.326 644.209 131.648 646.201 132.293V121.688L640.781 119.578V118.377L651.006 116.268L651.592 116.883V157.928L656.982 159.422ZM646.201 156.111V135.779C644.385 134.783 642.666 134.285 641.045 134.285C638.291 134.285 636.016 135.506 634.219 137.947C632.441 140.369 631.553 143.387 631.553 147C631.553 150.789 632.285 153.836 633.75 156.141C635.234 158.445 637.305 159.598 639.961 159.598C642.402 159.598 644.482 158.436 646.201 156.111ZM670.049 163.143C668.135 164.314 667.178 166.17 667.178 168.709C667.178 169.861 667.461 170.818 668.027 171.58C668.594 172.361 669.316 172.977 670.195 173.426C671.074 173.895 672.051 174.227 673.125 174.422C674.199 174.617 675.234 174.715 676.23 174.715C677.266 174.715 678.301 174.607 679.336 174.393C680.391 174.197 681.328 173.895 682.148 173.484C682.988 173.094 683.672 172.596 684.199 171.99C684.727 171.404 684.99 170.711 684.99 169.91C684.99 168.68 684.678 167.693 684.053 166.951C683.447 166.209 682.617 165.613 681.562 165.164C680.508 164.734 679.268 164.412 677.842 164.197C676.416 163.982 674.893 163.787 673.271 163.611C672.588 163.533 671.973 163.455 671.426 163.377C670.898 163.299 670.439 163.221 670.049 163.143ZM675.938 153.826C673.926 153.826 672.08 153.514 670.4 152.889C669.17 153.709 668.555 154.744 668.555 155.994C668.555 156.717 668.965 157.293 669.785 157.723C670.625 158.152 671.709 158.465 673.037 158.66C674.365 158.836 675.83 159.002 677.432 159.158C679.033 159.314 680.635 159.559 682.236 159.891C683.838 160.223 685.303 160.682 686.631 161.268C687.959 161.834 689.033 162.693 689.854 163.846C690.693 165.018 691.113 166.443 691.113 168.123C691.113 169.471 690.791 170.701 690.146 171.814C689.502 172.928 688.652 173.836 687.598 174.539C686.562 175.262 685.342 175.867 683.936 176.355C682.529 176.844 681.094 177.195 679.629 177.41C678.184 177.625 676.709 177.732 675.205 177.732C671.006 177.732 667.725 177 665.361 175.535C662.998 174.09 661.816 172.195 661.816 169.852C661.816 166.473 663.682 164.012 667.412 162.469C665.088 161.688 663.926 160.232 663.926 158.104C663.926 155.604 665.449 153.523 668.496 151.863C666.797 150.828 665.488 149.48 664.57 147.82C663.672 146.16 663.223 144.402 663.223 142.547C663.223 141.121 663.506 139.744 664.072 138.416C664.639 137.068 665.439 135.867 666.475 134.812C667.529 133.738 668.877 132.879 670.518 132.234C672.158 131.59 673.965 131.268 675.938 131.268C677.656 131.268 679.229 131.512 680.654 132H692.432V133.201L686.016 135.486C687.773 137.537 688.652 139.891 688.652 142.547C688.652 143.973 688.359 145.359 687.773 146.707C687.207 148.035 686.396 149.236 685.342 150.311C684.307 151.365 682.969 152.215 681.328 152.859C679.707 153.504 677.91 153.826 675.938 153.826ZM669.316 142.547C669.316 145.223 669.902 147.273 671.074 148.699C672.246 150.125 673.867 150.838 675.938 150.838C677.988 150.838 679.6 150.125 680.771 148.699C681.943 147.254 682.529 145.203 682.529 142.547C682.529 139.891 681.943 137.85 680.771 136.424C679.6 134.998 677.988 134.285 675.938 134.285C673.867 134.285 672.246 134.998 671.074 136.424C669.902 137.85 669.316 139.891 669.316 142.547ZM721.055 147.176H702.1C702.119 149.363 702.432 151.268 703.037 152.889C703.643 154.51 704.463 155.779 705.498 156.697C706.533 157.615 707.666 158.289 708.896 158.719C710.146 159.148 711.504 159.363 712.969 159.363C715 159.363 717.178 158.68 719.502 157.312L720.41 159.07C718.77 160.516 717.129 161.492 715.488 162C713.848 162.488 711.982 162.732 709.893 162.732C708.076 162.732 706.328 162.352 704.648 161.59C702.969 160.809 701.494 159.744 700.225 158.396C698.955 157.029 697.939 155.359 697.178 153.387C696.416 151.414 696.035 149.285 696.035 147C696.035 144.832 696.309 142.859 696.855 141.082C697.422 139.285 698.164 137.791 699.082 136.6C700 135.408 701.064 134.402 702.275 133.582C703.506 132.762 704.756 132.176 706.025 131.824C707.314 131.453 708.623 131.268 709.951 131.268C711.611 131.268 713.145 131.58 714.551 132.205C715.977 132.811 717.236 133.719 718.33 134.93C719.443 136.121 720.312 137.693 720.938 139.646C721.582 141.6 721.904 143.826 721.904 146.326L721.055 147.176ZM710.068 134.109C707.822 134.109 706.025 134.998 704.678 136.775C703.35 138.553 702.529 140.984 702.217 144.07H716.191C716.191 140.945 715.664 138.504 714.609 136.746C713.555 134.988 712.041 134.109 710.068 134.109Z" fill="#DFCFCF"/>
</svg>
